{
  "source": "C:\\Users\\Peter\\Desktop\\stuff\\MIUN\\quantitative_research\\video_compression\\videos\\BVI-HD\\BVI-HD_CDVL_videos\\ORIG\\Music_1920x1080_30fps.mp4",
  "output": "C:\\Users\\Peter\\Desktop\\stuff\\MIUN\\quantitative_research\\video_compression\\compressed_videos\\BVI-HD\\h264\\8\\Music_1920x1080_30fps_h264.mp4",
  "codec": "h264",
  "ok": "Input #0, mov,mp4,m4a,3gp,3g2,mj2, from 'C:\\Users\\Peter\\Desktop\\stuff\\MIUN\\quantitative_research\\video_compression\\videos\\BVI-HD\\BVI-HD_CDVL_videos\\ORIG\\Music_1920x1080_30fps.mp4':\n  Metadata:\n    major_brand     : isom\n    minor_version   : 512\n    compatible_brands: isomiso2avc1mp41\n    encoder         : Lavf54.28.101\n  Duration: 00:00:05.00, start: 0.000000, bitrate: 192710 kb/s\n  Stream #0:0[0x1](und): Video: h264 (High 4:4:4 Predictive) (avc1 / 0x31637661), yuv420p(progressive), 1920x1080, 192707 kb/s, 30 fps, 30 tbr, 30 tbn (default)\n    Metadata:\n      handler_name    : VideoHandler\n      vendor_id       : [0][0][0][0]\n[out#0/mp4 @ 000001c657aadc80] Codec AVOption b:a (set bitrate (in bits/s)) has not been used for any stream. The most likely reason is either wrong type (e.g. a video option with no video streams) or that it is a private option of some decoder which was not actually used for any stream.\nStream mapping:\n  Stream #0:0 -> #0:0 (h264 (native) -> h264 (libx264))\nPress [q] to stop, [?] for help\n[libx264 @ 000001c657b200c0] using cpu capabilities: MMX2 SSE2Fast SSSE3 SSE4.2 AVX FMA3 BMI2 AVX2\n[libx264 @ 000001c657b200c0] profile High, level 5.0, 4:2:0, 8-bit\n[libx264 @ 000001c657b200c0] 264 - core 165 r3222 b35605a - H.264/MPEG-4 AVC codec - Copyleft 2003-2025 - http://www.videolan.org/x264.html - options: cabac=1 ref=5 deblock=1:0:0 analyse=0x3:0x113 me=hex subme=8 psy=1 psy_rd=1.00:0.00 mixed_ref=1 me_range=16 chroma_me=1 trellis=2 8x8dct=1 cqm=0 deadzone=21,11 fast_pskip=1 chroma_qp_offset=-2 threads=18 lookahead_threads=3 sliced_threads=0 nr=0 decimate=1 interlaced=0 bluray_compat=0 constrained_intra=0 bframes=3 b_pyramid=2 b_adapt=1 b_bias=0 direct=3 weightb=1 open_gop=0 weightp=2 keyint=250 keyint_min=25 scenecut=40 intra_refresh=0 rc_lookahead=50 rc=cbr mbtree=1 bitrate=8000 ratetol=1.0 qcomp=0.60 qpmin=0 qpmax=69 qpstep=4 vbv_maxrate=8000 vbv_bufsize=8000 nal_hrd=none filler=0 ip_ratio=1.40 aq=1:1.00\nOutput #0, mp4, to 'C:\\Users\\Peter\\Desktop\\stuff\\MIUN\\quantitative_research\\video_compression\\compressed_videos\\BVI-HD\\h264\\8\\Music_1920x1080_30fps_h264.mp4':\n  Metadata:\n    major_brand     : isom\n    minor_version   : 512\n    compatible_brands: isomiso2avc1mp41\n    encoder         : Lavf62.3.100\n  Stream #0:0(und): Video: h264 (avc1 / 0x31637661), yuv420p(tv, progressive), 1920x1080, q=2-31, 8000 kb/s, 30 fps, 15360 tbn (default)\n    Metadata:\n      encoder         : Lavc62.11.100 libx264\n      handler_name    : VideoHandler\n      vendor_id       : [0][0][0][0]\n    Side data:\n      cpb: bitrate max/min/avg: 8000000/0/8000000 buffer size: 8000000 vbv_delay: N/A\nframe=    0 fps=0.0 q=0.0 size=       0KiB time=N/A bitrate=N/A speed=N/A elapsed=0:00:00.52    \nframe=    0 fps=0.0 q=0.0 size=       0KiB time=N/A bitrate=N/A speed=N/A elapsed=0:00:01.09    \nframe=    8 fps=4.9 q=29.0 size=       0KiB time=00:00:00.16 bitrate=   2.3kbits/s speed=0.101x elapsed=0:00:01.64    \nframe=   16 fps=7.2 q=27.0 size=     256KiB time=00:00:00.46 bitrate=4494.7kbits/s speed=0.21x elapsed=0:00:02.21    \nframe=   33 fps= 12 q=28.0 size=     768KiB time=00:00:01.03 bitrate=6088.9kbits/s speed=0.373x elapsed=0:00:02.77    \nframe=   51 fps= 15 q=27.0 size=    1536KiB time=00:00:01.63 bitrate=7704.1kbits/s speed=0.493x elapsed=0:00:03.31    \nframe=   68 fps= 18 q=27.0 size=    2048KiB time=00:00:02.16 bitrate=7743.5kbits/s speed=0.564x elapsed=0:00:03.84    \nframe=   89 fps= 20 q=27.0 size=    2560KiB time=00:00:02.83 bitrate=7401.8kbits/s speed=0.645x elapsed=0:00:04.39    \nframe=  103 fps= 21 q=27.0 size=    3072KiB time=00:00:03.36 bitrate=7475.1kbits/s speed=0.682x elapsed=0:00:04.93    \nframe=  120 fps= 22 q=26.0 size=    3584KiB time=00:00:03.90 bitrate=7528.3kbits/s speed=0.713x elapsed=0:00:05.47    \nframe=  139 fps= 23 q=-1.0 size=    4096KiB time=00:00:04.56 bitrate=7347.8kbits/s speed=0.759x elapsed=0:00:06.01    \n[mp4 @ 000001c657f13bc0] Starting second pass: moving the moov atom to the beginning of the file\n[out#0/mp4 @ 000001c657aadc80] video:4774KiB audio:0KiB subtitle:0KiB other streams:0KiB global headers:0KiB muxing overhead: 0.048419%\nframe=  150 fps= 23 q=-1.0 Lsize=    4776KiB time=00:00:04.93 bitrate=7931.3kbits/s speed=0.771x elapsed=0:00:06.39    \n[libx264 @ 000001c657b200c0] frame I:3     Avg QP:21.23  size: 77445\n[libx264 @ 000001c657b200c0] frame P:70    Avg QP:23.80  size: 40125\n[libx264 @ 000001c657b200c0] frame B:77    Avg QP:25.06  size: 23984\n[libx264 @ 000001c657b200c0] consecutive B-frames: 31.3%  0.0%  2.0% 66.7%\n[libx264 @ 000001c657b200c0] mb I  I16..4: 26.1% 68.7%  5.2%\n[libx264 @ 000001c657b200c0] mb P  I16..4: 12.7% 20.8%  1.0%  P16..4: 43.5%  7.0%  6.1%  0.0%  0.0%    skip: 9.0%\n[libx264 @ 000001c657b200c0] mb B  I16..4:  0.4%  2.5%  0.2%  B16..8: 42.4%  8.1%  1.2%  direct: 5.6%  skip:39.6%  L0:48.4% L1:46.6% BI: 5.0%\n[libx264 @ 000001c657b200c0] 8x8 transform intra:62.8% inter:88.0%\n[libx264 @ 000001c657b200c0] direct mvs  spatial:98.7% temporal:1.3%\n[libx264 @ 000001c657b200c0] coded y,uvDC,uvAC intra: 45.7% 77.9% 19.7% inter: 23.1% 42.1% 0.8%\n[libx264 @ 000001c657b200c0] i16 v,h,dc,p: 16% 11%  6% 67%\n[libx264 @ 000001c657b200c0] i8 v,h,dc,ddl,ddr,vr,hd,vl,hu:  8%  4%  4% 12% 19% 16% 14% 13% 10%\n[libx264 @ 000001c657b200c0] i4 v,h,dc,ddl,ddr,vr,hd,vl,hu: 11%  5%  4% 12% 18% 16% 13% 11% 11%\n[libx264 @ 000001c657b200c0] i8c dc,h,v,p: 27% 20% 16% 37%\n[libx264 @ 000001c657b200c0] Weighted P-Frames: Y:0.0% UV:0.0%\n[libx264 @ 000001c657b200c0] ref P L0: 47.1%  9.0% 20.3% 10.2% 10.7%  2.8%\n[libx264 @ 000001c657b200c0] ref B L0: 71.7% 16.8%  8.0%  3.5%\n[libx264 @ 000001c657b200c0] ref B L1: 93.5%  6.5%\n[libx264 @ 000001c657b200c0] kb/s:7820.58\n",
  "seconds": 6.600104093551636,
  "probe_out": {}
}